# xmcd
#
# Track frame offsets:
#	150
#	16506
#	34596
#	47531
#	71609
#	84974
#	100028
#	117530
#	135837
#	155085
#	170562
#	185943
#
# Disc length: 2805 seconds
#
# Revision: 0
# Processed by: cddbd v1.5PL3 Copyright (c) Steve Scherf et al.
# Submitted via: dBpowerAMP V4.0
#
DISCID=920af30c
DTITLE=Charlie Daniels Band - All Their Hits
DYEAR=2000
DGENRE=Country
TTITLE0=The Devil Went Down To Georgia
TTITLE1=The South's Gonna Do It Again
TTITLE2=Stroker Ace
TTITLE3=Uneasy Rider
TTITLE4=Let It Roll
TTITLE5=In America
TTITLE6=Still In Saigon
TTITLE7=Long Haired Country Boy
TTITLE8=Legend Of Wooley Swamp
TTITLE9=Every Time I See Him
TTITLE10=Dueling Banjos
TTITLE11=Orange Blossom Special
EXTD=
EXTT0=
EXTT1=
EXTT2=
EXTT3=
EXTT4=
EXTT5=
EXTT6=
EXTT7=
EXTT8=
EXTT9=
EXTT10=
EXTT11=
PLAYORDER=
